PathFileType	4	(X/Y/Z)	s04c0101.trc
DataRate	CameraRate	NumFrames	NumMarkers	Units	OrigDataRate	OrigDataStartFrame	OrigNumFrames
200	200	4	51	mm	200	1500	2000
Frame#	Time	racr			lacr			c7			jug			rlel			rdr			llel			ldr			s2			lic			ric			lasi			rasi			rpsi			lpsi			rgt			lgt			rth1			rth2			rth3			rth4			rlfc			rmfc			rsh1			rsh2			rsh3			rsh4			rlmal			rmmal			rcal			rtoe			rmt5			lth1			lth2			lth4			lth3			llfc			lmfc			lsh1			lsh2			lsh3			lsh4			llmal			lmmal			lcal			ltoe			lmt1			lmt5			SBIKE			LBIKE			RBIKE			
		X1	Y1	Z1	X2	Y2	Z2	X3	Y3	Z3	X4	Y4	Z4	X5	Y5	Z5	X6	Y6	Z6	X7	Y7	Z7	X8	Y8	Z8	X9	Y9	Z9	X10	Y10	Z10	X11	Y11	Z11	X12	Y12	Z12	X13	Y13	Z13	X14	Y14	Z14	X15	Y15	Z15	X16	Y16	Z16	X17	Y17	Z17	X18	Y18	Z18	X19	Y19	Z19	X20	Y20	Z20	X21	Y21	Z21	X22	Y22	Z22	X23	Y23	Z23	X24	Y24	Z24	X25	Y25	Z25	X26	Y26	Z26	X27	Y27	Z27	X28	Y28	Z28	X29	Y29	Z29	X30	Y30	Z30	X31	Y31	Z31	X32	Y32	Z32	X33	Y33	Z33	X34	Y34	Z34	X35	Y35	Z35	X36	Y36	Z36	X37	Y37	Z37	X38	Y38	Z38	X39	Y39	Z39	X40	Y40	Z40	X41	Y41	Z41	X42	Y42	Z42	X43	Y43	Z43	X44	Y44	Z44	X45	Y45	Z45	X46	Y46	Z46	X47	Y47	Z47	X48	Y48	Z48	X49	Y49	Z49	X50	Y50	Z50	X51	Y51	Z51	
1500	7.5000	435.270184	1428.521882	-127.020795	438.690115	1431.947898	-431.545424	387.487298	1511.785204	-279.820711	416.183037	1358.599704	-285.244650	509.371769	1131.620097	-29.385635	690.713973	906.829335	-120.613405	510.021252	1157.075578	-535.110653	687.238031	905.002173	-472.440228	-92.649020	1156.022654	-289.885516	60.808785	1195.171534	-446.368624	58.799558	1184.491877	-124.491052	101.903872	1149.339166	-402.403550	105.940853	1138.948562	-172.955698	-75.369417	1202.980765	-243.060729	-75.008814	1206.409313	-322.626518	20.234917	1114.624478	-109.311823	32.236882	1088.974309	-472.931865	142.705675	1009.905317	-93.295695	223.447010	973.298944	-94.173761	275.737507	905.560274	-92.449336	244.291970	999.500109	-111.724948	362.639428	790.010493	-113.178638	347.456177	774.018078	-226.749844	269.209551	709.333669	-91.451271	218.566582	637.394888	-110.048460	139.081224	605.938840	-119.267308	241.892038	617.084193	-133.558601	29.298846	504.181819	-132.711418	55.266454	498.518033	-216.831586	-43.780178	517.636583	-174.090444	187.819658	326.795083	-161.371921	120.187209	347.770198	-106.011550	100.618391	1017.376518	-488.000878	182.507564	989.342589	-493.966926	203.632583	1019.160721	-485.480253	241.258729	921.951395	-495.322989	359.509973	811.961483	-473.684583	399.122008	796.851561	-365.969794	354.821552	689.496027	-492.676096	363.220884	605.400123	-470.030015	328.220898	524.064693	-465.307889	392.489085	605.342775	-443.937620	302.855099	380.648862	-454.153934	301.121148	384.607640	-366.469943	223.445995	375.683156	-410.019401	515.541522	294.750572	-417.716363	441.606519	291.361047	-368.072201	437.439495	274.557034	-477.372224	-188.005541	936.764762	-286.031532	-18.300564	79.004346	-484.706369	-18.287582	79.141100	-83.886849	
1501	7.5050	434.815083	1428.071332	-126.295096	438.927365	1432.017992	-430.818663	387.845893	1511.461879	-279.228791	416.250061	1358.261623	-284.751343	509.037576	1131.318432	-28.889450	690.527580	906.845932	-121.012430	510.424434	1157.299992	-534.889534	687.327693	904.837621	-472.385906	-92.308504	1156.111904	-290.826582	61.712573	1194.536120	-446.724862	58.251680	1184.776843	-124.903826	102.387993	1148.573122	-402.054075	105.794483	1139.064186	-173.089862	-73.775533	1202.693594	-243.545558	-74.601992	1206.574282	-323.709986	20.424740	1115.330981	-109.477874	32.638615	1087.728161	-473.243963	143.966694	1012.391358	-93.860656	225.234340	977.027081	-94.768099	278.501927	909.967986	-92.861835	245.693424	1003.305861	-112.787612	366.591865	795.476388	-113.408698	350.966697	779.105117	-227.107489	272.834941	715.397573	-92.135355	221.230677	643.973677	-110.633404	141.421291	613.389682	-119.645162	244.331921	623.639974	-134.116258	30.655634	512.662400	-133.135729	56.024778	506.980336	-217.464206	-42.806164	525.686010	-174.421981	190.080788	336.527372	-161.608353	122.325493	357.051313	-106.227719	100.249443	1014.416085	-488.611318	181.420074	984.413492	-494.421465	202.746749	1013.233357	-485.516200	238.600988	915.580095	-495.211407	354.796700	803.963075	-473.693202	393.964630	788.663358	-365.790900	350.412834	681.161753	-492.616009	359.549296	597.185692	-469.972144	325.226504	515.614474	-465.219062	388.834799	597.409164	-443.839178	300.858035	372.012191	-454.240995	299.209095	376.069460	-366.374985	221.615108	367.574175	-410.078509	513.435355	285.471020	-417.683231	439.546043	282.272861	-368.039817	435.272480	265.529585	-477.309808	-187.997605	936.762293	-286.119601	-18.291336	78.974588	-484.696982	-18.274584	79.159581	-83.900846	
1502	7.5100	434.368433	1427.723875	-125.700442	439.232519	1432.074982	-430.086017	388.210647	1511.191626	-278.466947	416.365714	1357.852592	-284.178574	508.704886	1131.035832	-28.400689	690.682742	907.171375	-121.107307	510.781435	1157.491277	-534.653937	687.374433	904.654988	-472.310107	-91.995391	1156.244336	-291.779013	62.732437	1194.199043	-447.099360	58.046935	1185.152447	-125.574790	103.255445	1148.124913	-402.395913	105.654908	1139.309727	-173.212432	-73.343620	1202.578115	-244.841319	-74.110827	1206.952329	-325.323157	20.579763	1116.098983	-109.582306	33.034241	1086.615431	-473.592642	145.255381	1015.046424	-94.342633	227.002882	980.673303	-95.462651	281.171402	914.445609	-93.254247	246.726796	1006.846498	-113.866797	370.495006	800.902871	-113.814159	354.431346	784.558510	-227.459086	276.102310	721.954230	-92.754787	223.961510	650.765431	-111.072443	143.837380	620.953389	-120.062990	246.744569	630.120364	-134.774432	32.184693	521.165907	-133.473402	56.389271	515.499050	-218.240598	-41.735112	533.592529	-174.655716	192.894613	346.514750	-161.734269	124.884760	366.567848	-106.375323	99.685744	1011.608132	-489.238757	180.146829	979.603700	-494.904510	201.990439	1007.941034	-486.002884	235.516916	909.441217	-495.072674	349.744453	796.277708	-473.688957	388.674087	780.919270	-365.632968	345.882141	673.274175	-492.453306	355.807744	589.348984	-469.879886	322.118583	507.585844	-465.223881	385.126004	589.672521	-443.817238	298.711772	363.703248	-454.235207	297.289170	367.699609	-366.239688	219.668108	359.738509	-410.026697	510.989761	275.839261	-417.584595	437.100886	273.120867	-368.070431	432.699074	256.450053	-477.219455	-188.077821	936.768463	-286.205311	-18.292008	78.958277	-484.685567	-18.275486	79.149953	-83.917254	
1503	7.5150	433.926751	1427.429786	-125.013396	439.655287	1432.090964	-429.307440	388.636846	1510.666164	-277.901423	416.525757	1357.501507	-283.626641	508.415161	1130.783076	-27.925695	690.604346	907.382516	-120.535006	511.094753	1157.773651	-534.380206	687.419527	904.465645	-472.270229	-91.710764	1156.442883	-292.707761	63.675951	1193.787581	-447.522505	57.741855	1185.437749	-126.207323	103.944775	1147.549071	-402.452964	105.354167	1139.579374	-173.629698	-73.280282	1202.778930	-245.674177	-73.676340	1206.986811	-326.179628	20.723098	1117.033195	-109.654237	33.296106	1085.566738	-473.917848	146.394188	1017.731166	-94.914357	228.601591	984.408842	-96.037701	283.794061	918.980068	-93.614057	247.943153	1010.742083	-114.681074	374.313489	806.509403	-114.256227	359.674903	790.847515	-229.189454	279.535420	728.326611	-93.402252	226.685166	657.644084	-111.616770	146.302597	628.519981	-120.452394	249.266596	636.828698	-135.330104	33.975202	529.499208	-133.891118	57.124800	523.973347	-218.925225	-40.535157	541.169383	-175.030926	196.117561	356.704205	-162.021788	128.378595	376.270818	-106.355103	98.953785	1009.003434	-489.824858	178.653658	975.134259	-495.340898	201.133900	1003.022896	-486.617981	232.320728	903.680585	-495.037365	344.657730	788.886631	-473.713455	383.225629	773.439300	-365.568733	341.303420	665.583443	-491.823376	351.921181	581.824397	-469.811171	318.921660	499.732204	-465.124380	381.280644	582.477380	-443.596170	296.371056	355.685890	-454.191723	295.039487	359.462641	-365.974623	217.498533	352.382905	-409.739937	508.109614	266.027709	-417.512008	434.278584	263.952561	-368.100050	429.676106	247.216764	-477.094674	-188.063997	936.772152	-286.289388	-18.291274	78.960002	-484.704817	-18.277152	79.145650	-83.918377	
